<?xml version="1.0" encoding="UTF-8"?>
<svg xmlns="http://www.w3.org/2000/svg" xmlns:xlink="http://www.w3.org/1999/xlink" viewBox="0 0 52 52" width="52px" height="52px">
<g id="surface40747010">
<path style="fill-rule:nonzero;fill:rgb(100%,100%,100%);fill-opacity:1;stroke-width:10;stroke-linecap:butt;stroke-linejoin:round;stroke:rgb(0%,0%,0%);stroke-opacity:1;stroke-miterlimit:10;" d="M 99.235145 172.001095 L -0.00109383 152.982411 L -0.00109383 19.01759 L 99.235145 -0.00109383 Z M 166.422646 19.851623 C 169.471651 19.851623 172.001095 22.44943 172.001095 25.635162 L 172.001095 146.364839 C 172.001095 149.550571 169.471651 152.148378 166.422646 152.148378 L 105.852718 152.148378 L 105.852718 132.309334 L 125.691762 132.309334 L 125.691762 119.074189 L 105.852718 119.074189 L 105.852718 105.852718 L 125.691762 105.852718 L 125.691762 92.617573 L 105.852718 92.617573 L 105.852718 79.382428 L 125.691762 79.382428 L 125.691762 66.147284 L 105.852718 66.147284 L 105.852718 52.925812 L 125.896852 52.925812 L 125.896852 39.485577 L 105.852718 39.485577 L 105.852718 19.851623 Z M 132.309334 52.925812 L 158.765951 52.925812 L 158.765951 39.690667 L 132.309334 39.690667 Z M 39.895757 86.205091 L 18.60741 119.703132 L 36.586971 119.703132 L 48.167723 97.990932 C 48.97441 95.899014 49.411936 94.271966 49.617026 93.232843 L 49.822116 93.232843 C 50.286987 95.406798 50.833893 96.979155 51.271419 97.785842 L 62.85217 119.703132 L 80.626641 119.703132 L 59.953564 85.794911 L 80.011371 52.515632 L 63.26235 52.515632 L 52.720722 72.559766 C 51.681599 75.143901 50.833893 77.030729 50.437386 78.356978 C 49.849461 76.183024 49.12481 74.350886 48.372813 72.764856 L 38.665217 52.515632 L 20.466893 52.515632 Z M 132.309334 79.382428 L 158.765951 79.382428 L 158.765951 66.147284 L 132.309334 66.147284 Z M 132.309334 105.852718 L 158.765951 105.852718 L 158.765951 92.617573 L 132.309334 92.617573 Z M 132.309334 132.309334 L 158.765951 132.309334 L 158.765951 119.074189 L 132.309334 119.074189 Z M 132.309334 132.309334 " transform="matrix(0.285698,0,0,0.285698,1.43,1.43)"/>
<path style=" stroke:none;fill-rule:nonzero;fill:rgb(100%,100%,100%);fill-opacity:1;" d="M 29.78125 1.429688 L 1.429688 6.863281 L 1.429688 45.136719 L 29.78125 50.570312 Z M 31.671875 7.101562 L 31.671875 12.710938 L 37.398438 12.710938 L 37.398438 16.550781 L 31.671875 16.550781 L 31.671875 20.328125 L 37.339844 20.328125 L 37.339844 24.109375 L 31.671875 24.109375 L 31.671875 27.890625 L 37.339844 27.890625 L 37.339844 31.671875 L 31.671875 31.671875 L 31.671875 35.449219 L 37.339844 35.449219 L 37.339844 39.230469 L 31.671875 39.230469 L 31.671875 44.898438 L 48.976562 44.898438 C 49.847656 44.898438 50.570312 44.15625 50.570312 43.246094 L 50.570312 8.753906 C 50.570312 7.84375 49.847656 7.101562 48.976562 7.101562 Z M 39.230469 12.769531 L 46.789062 12.769531 L 46.789062 16.550781 L 39.230469 16.550781 Z M 7.277344 16.433594 L 12.476562 16.433594 L 15.25 22.21875 C 15.464844 22.671875 15.671875 23.195312 15.839844 23.816406 C 15.953125 23.4375 16.195312 22.898438 16.492188 22.160156 L 19.503906 16.433594 L 24.289062 16.433594 L 18.558594 25.941406 L 24.464844 35.628906 L 19.386719 35.628906 L 16.078125 29.367188 C 15.953125 29.136719 15.796875 28.6875 15.664062 28.066406 L 15.605469 28.066406 C 15.546875 28.363281 15.421875 28.828125 15.191406 29.425781 L 11.882812 35.628906 L 6.746094 35.628906 L 12.828125 26.058594 Z M 39.230469 20.328125 L 46.789062 20.328125 L 46.789062 24.109375 L 39.230469 24.109375 Z M 39.230469 27.890625 L 46.789062 27.890625 L 46.789062 31.671875 L 39.230469 31.671875 Z M 39.230469 35.449219 L 46.789062 35.449219 L 46.789062 39.230469 L 39.230469 39.230469 Z M 39.230469 35.449219 "/>
</g>
</svg>
