<?xml version="1.0" encoding="UTF-8"?>
<svg xmlns="http://www.w3.org/2000/svg" xmlns:xlink="http://www.w3.org/1999/xlink" viewBox="0 0 48 48" width="48px" height="48px">
<g id="surface40723014">
<path style=" stroke:none;fill-rule:nonzero;fill:rgb(100%,100%,100%);fill-opacity:1;" d="M 24.609375 4.042969 C 24.347656 4.035156 24.082031 4.054688 23.816406 4.105469 L 8.617188 7.144531 C 6.523438 7.566406 5 9.421875 5 11.558594 L 5 36.441406 C 5 38.578125 6.523438 40.433594 8.617188 40.851562 L 23.816406 43.890625 C 25.757812 44.28125 27.554688 42.890625 27.875 41 L 37.5 41 C 40.519531 41 43 38.519531 43 35.5 L 43 13.5 C 43 10.480469 40.519531 8 37.5 8 L 28 8 L 28 7.539062 C 28 5.632812 26.429688 4.109375 24.605469 4.042969 Z M 24.402344 7.046875 C 24.742188 6.980469 25 7.191406 25 7.539062 L 25 40.460938 C 25 40.808594 24.742188 41.019531 24.402344 40.949219 L 9.207031 37.910156 C 9.207031 37.910156 9.207031 37.910156 9.203125 37.910156 C 8.496094 37.769531 8 37.164062 8 36.441406 L 8 11.558594 C 8 10.835938 8.496094 10.230469 9.207031 10.085938 Z M 28 11 L 37.5 11 C 38.898438 11 40 12.101562 40 13.5 L 40 35.5 C 40 36.898438 38.898438 38 37.5 38 L 28 38 Z M 31.5 15 C 30.960938 14.992188 30.457031 15.277344 30.183594 15.742188 C 29.910156 16.210938 29.910156 16.789062 30.183594 17.257812 C 30.457031 17.722656 30.960938 18.007812 31.5 18 L 35.5 18 C 36.039062 18.007812 36.542969 17.722656 36.816406 17.257812 C 37.089844 16.789062 37.089844 16.210938 36.816406 15.742188 C 36.542969 15.277344 36.039062 14.992188 35.5 15 Z M 13 17.15625 C 12.710938 17.152344 12.414062 17.226562 12.152344 17.390625 C 11.453125 17.835938 11.25 18.765625 11.691406 19.460938 L 14.679688 24.15625 L 11.691406 28.851562 C 11.25 29.550781 11.453125 30.480469 12.152344 30.921875 C 12.402344 31.082031 12.679688 31.15625 12.957031 31.15625 C 13.453125 31.15625 13.9375 30.914062 14.222656 30.464844 L 16.457031 26.953125 L 18.691406 30.460938 C 18.980469 30.910156 19.464844 31.15625 19.960938 31.15625 C 20.238281 31.15625 20.511719 31.082031 20.761719 30.921875 C 21.460938 30.480469 21.667969 29.550781 21.222656 28.851562 L 18.238281 24.15625 L 21.222656 19.464844 C 21.667969 18.765625 21.460938 17.835938 20.761719 17.390625 C 20.066406 16.949219 19.140625 17.152344 18.691406 17.851562 L 16.457031 21.363281 L 14.222656 17.851562 C 13.945312 17.414062 13.480469 17.171875 12.996094 17.15625 Z M 31.5 23 C 30.960938 22.992188 30.457031 23.277344 30.183594 23.742188 C 29.910156 24.210938 29.910156 24.789062 30.183594 25.257812 C 30.457031 25.722656 30.960938 26.007812 31.5 26 L 35.5 26 C 36.039062 26.007812 36.542969 25.722656 36.816406 25.257812 C 37.089844 24.789062 37.089844 24.210938 36.816406 23.742188 C 36.542969 23.277344 36.039062 22.992188 35.5 23 Z M 31.5 31 C 30.960938 30.992188 30.457031 31.277344 30.183594 31.742188 C 29.910156 32.210938 29.910156 32.789062 30.183594 33.257812 C 30.457031 33.722656 30.960938 34.007812 31.5 34 L 35.5 34 C 36.039062 34.007812 36.542969 33.722656 36.816406 33.257812 C 37.089844 32.789062 37.089844 32.210938 36.816406 31.742188 C 36.542969 31.277344 36.039062 30.992188 35.5 31 Z M 31.5 31 "/>
</g>
</svg>
