<?xml version="1.0" encoding="UTF-8"?>
<svg xmlns="http://www.w3.org/2000/svg" xmlns:xlink="http://www.w3.org/1999/xlink" viewBox="0 0 48 48" width="48px" height="48px">
<g id="surface40765400">
<path style="fill-rule:nonzero;fill:rgb(100%,100%,100%);fill-opacity:1;stroke-width:10;stroke-linecap:butt;stroke-linejoin:round;stroke:rgb(40.000001%,40.000001%,40.000001%);stroke-opacity:1;stroke-miterlimit:10;" d="M 100.338074 27.018381 L 100.338074 28.662519 L 134.376186 28.662519 C 145.188989 28.662519 154.076225 37.549755 154.076225 48.37737 L 154.076225 127.207149 C 154.076225 138.034765 145.188989 146.922 134.376186 146.922 L 99.8789 146.922 C 98.738372 153.691111 92.295126 158.667963 85.333458 157.275629 L 30.884328 146.388766 C 23.374614 144.892748 17.923777 138.227321 17.923777 130.584299 L 17.923777 41.415702 C 17.923777 33.77268 23.374614 27.107253 30.884328 25.611235 L 85.333458 14.724372 C 86.296242 14.531815 87.244214 14.457755 88.177373 14.487379 C 94.709491 14.724372 100.338074 20.190022 100.338074 27.018381 Z M 32.987641 36.142609 C 30.439967 36.661031 28.662519 38.823592 28.662519 41.415702 L 28.662519 130.584299 C 28.662519 133.176409 30.439967 135.33897 32.987641 135.84258 L 87.43677 146.729443 C 87.43677 146.744255 87.43677 146.744255 87.43677 146.744255 C 88.651359 146.981248 89.584519 146.225833 89.584519 144.98162 L 89.584519 27.018381 C 89.584519 25.774168 88.651359 25.018753 87.43677 25.255746 Z M 100.338074 136.168445 L 134.376186 136.168445 C 139.382662 136.168445 143.337482 132.213625 143.337482 127.207149 L 143.337482 48.37737 C 143.337482 43.370894 139.382662 39.416074 134.376186 39.416074 L 100.338074 39.416074 Z M 127.207149 53.754148 C 129.147529 53.724524 130.9546 54.746556 131.932196 56.420318 C 132.909792 58.094081 132.909792 60.167769 131.932196 61.841532 C 130.9546 63.515295 129.147529 64.522515 127.207149 64.492891 L 112.869076 64.492891 C 110.943508 64.522515 109.136437 63.515295 108.158841 61.841532 C 107.181245 60.167769 107.181245 58.094081 108.158841 56.420318 C 109.136437 54.746556 110.943508 53.724524 112.869076 53.754148 Z M 50.969481 63.974469 L 58.982805 76.549907 L 66.981317 63.974469 C 68.581019 61.471231 71.89892 60.730628 74.402158 62.33033 C 76.905396 63.91522 77.645999 67.247934 76.061109 69.751172 L 65.35199 86.562859 L 76.061109 103.389358 C 77.645999 105.892596 76.905396 109.210497 74.402158 110.8102 C 73.513435 111.38787 72.521027 111.654487 71.528619 111.654487 C 69.751172 111.654487 68.018161 110.765764 66.981317 109.166061 L 58.982805 96.575811 L 50.969481 109.166061 C 49.947449 110.780576 48.199626 111.654487 46.422178 111.654487 C 45.444583 111.654487 44.437363 111.373058 43.548639 110.8102 C 41.045401 109.210497 40.304798 105.892596 41.9045 103.389358 L 52.613619 86.562859 L 41.9045 69.73636 C 40.304798 67.233122 41.045401 63.91522 43.548639 62.33033 C 44.481799 61.723036 45.548267 61.456419 46.570299 61.486043 C 48.30331 61.530479 49.977073 62.40439 50.969481 63.974469 Z M 127.207149 82.415482 C 129.147529 82.385858 130.9546 83.40789 131.932196 85.081653 C 132.909792 86.755416 132.909792 88.829104 131.932196 90.502867 C 130.9546 92.176629 129.147529 93.198661 127.207149 93.169037 L 112.869076 93.169037 C 110.943508 93.198661 109.136437 92.176629 108.158841 90.502867 C 107.181245 88.829104 107.181245 86.755416 108.158841 85.081653 C 109.136437 83.40789 110.943508 82.385858 112.869076 82.415482 Z M 127.207149 111.076817 C 129.147529 111.062005 130.9546 112.069225 131.932196 113.742988 C 132.909792 115.41675 132.909792 117.490438 131.932196 119.164201 C 130.9546 120.837964 129.147529 121.859996 127.207149 121.830372 L 112.869076 121.830372 C 110.943508 121.859996 109.136437 120.837964 108.158841 119.164201 C 107.181245 117.490438 107.181245 115.41675 108.158841 113.742988 C 109.136437 112.069225 110.943508 111.062005 112.869076 111.076817 Z M 127.207149 111.076817 " transform="matrix(0.263721,0,0,0.263721,1.32,1.32)"/>
<path style=" stroke:none;fill-rule:nonzero;fill:rgb(100%,100%,100%);fill-opacity:1;" d="M 24.574219 5.140625 C 24.328125 5.132812 24.078125 5.152344 23.824219 5.203125 L 9.464844 8.074219 C 7.484375 8.46875 6.046875 10.226562 6.046875 12.242188 L 6.046875 35.757812 C 6.046875 37.773438 7.484375 39.53125 9.464844 39.925781 L 23.824219 42.796875 C 25.660156 43.164062 27.359375 41.851562 27.660156 40.066406 L 36.757812 40.066406 C 39.609375 40.066406 41.953125 37.722656 41.953125 34.867188 L 41.953125 14.078125 C 41.953125 11.222656 39.609375 8.878906 36.757812 8.878906 L 27.78125 8.878906 L 27.78125 8.445312 C 27.78125 6.644531 26.296875 5.203125 24.574219 5.140625 Z M 24.378906 7.980469 C 24.699219 7.917969 24.945312 8.117188 24.945312 8.445312 L 24.945312 39.554688 C 24.945312 39.882812 24.699219 40.082031 24.378906 40.019531 C 24.378906 40.019531 24.378906 40.019531 24.378906 40.015625 L 10.019531 37.144531 C 9.347656 37.011719 8.878906 36.441406 8.878906 35.757812 L 8.878906 12.242188 C 8.878906 11.558594 9.347656 10.988281 10.019531 10.851562 Z M 27.78125 11.714844 L 36.757812 11.714844 C 38.078125 11.714844 39.121094 12.757812 39.121094 14.078125 L 39.121094 34.867188 C 39.121094 36.1875 38.078125 37.230469 36.757812 37.230469 L 27.78125 37.230469 Z M 31.085938 15.496094 C 30.578125 15.488281 30.101562 15.757812 29.84375 16.199219 C 29.585938 16.640625 29.585938 17.1875 29.84375 17.628906 C 30.101562 18.070312 30.578125 18.335938 31.085938 18.328125 L 34.867188 18.328125 C 35.378906 18.335938 35.855469 18.070312 36.113281 17.628906 C 36.371094 17.1875 36.371094 16.640625 36.113281 16.199219 C 35.855469 15.757812 35.378906 15.488281 34.867188 15.496094 Z M 13.601562 17.535156 C 13.332031 17.527344 13.050781 17.597656 12.804688 17.757812 C 12.144531 18.175781 11.949219 19.050781 12.371094 19.710938 L 15.195312 24.148438 L 12.371094 28.585938 C 11.949219 29.246094 12.144531 30.121094 12.804688 30.542969 C 13.039062 30.691406 13.304688 30.765625 13.5625 30.765625 C 14.03125 30.765625 14.492188 30.535156 14.761719 30.109375 L 16.875 26.789062 L 18.984375 30.109375 C 19.257812 30.53125 19.714844 30.765625 20.183594 30.765625 C 20.445312 30.765625 20.707031 30.695312 20.941406 30.542969 C 21.601562 30.121094 21.796875 29.246094 21.378906 28.585938 L 18.554688 24.148438 L 21.378906 19.714844 C 21.796875 19.054688 21.601562 18.175781 20.941406 17.757812 C 20.28125 17.335938 19.40625 17.53125 18.984375 18.191406 L 16.875 21.507812 L 14.761719 18.191406 C 14.5 17.777344 14.058594 17.546875 13.601562 17.535156 Z M 31.085938 23.054688 C 30.578125 23.046875 30.101562 23.316406 29.84375 23.757812 C 29.585938 24.199219 29.585938 24.746094 29.84375 25.1875 C 30.101562 25.628906 30.578125 25.898438 31.085938 25.890625 L 34.867188 25.890625 C 35.378906 25.898438 35.855469 25.628906 36.113281 25.1875 C 36.371094 24.746094 36.371094 24.199219 36.113281 23.757812 C 35.855469 23.316406 35.378906 23.046875 34.867188 23.054688 Z M 31.085938 30.613281 C 30.578125 30.609375 30.101562 30.875 29.84375 31.316406 C 29.585938 31.757812 29.585938 32.304688 29.84375 32.746094 C 30.101562 33.1875 30.578125 33.457031 31.085938 33.449219 L 34.867188 33.449219 C 35.378906 33.457031 35.855469 33.1875 36.113281 32.746094 C 36.371094 32.304688 36.371094 31.757812 36.113281 31.316406 C 35.855469 30.875 35.378906 30.609375 34.867188 30.613281 Z M 31.085938 30.613281 "/>
</g>
</svg>
