<svg id="design" xmlns="http://www.w3.org/2000/svg" viewBox="0 0 500 500"><defs><style>.cls-1{fill:#666d75;}.cls-2{fill:#007cc2;}</style></defs><title>personal</title><path class="cls-1" d="M340.17,265.84a177.56,177.56,0,0,0-47.28-17.91,91.38,91.38,0,1,0-77.79,0C135.6,265.72,76,336.84,76,421.63a6.5,6.5,0,0,0,6.5,6.5H298.18a6.49,6.49,0,0,0,1.62-12.78,6.21,6.21,0,0,0-1.62-.22h-209c3.42-88,76.07-158.5,164.87-158.5a165.19,165.19,0,0,1,79.87,20.58,5.94,5.94,0,0,0,1.52.6,6.5,6.5,0,0,0,4.78-12Zm-7.79-100.59A78.38,78.38,0,1,1,254,86.87,78.47,78.47,0,0,1,332.38,165.25Z"/><path class="cls-2" d="M425.5,351.47H368.34V294.31a6.5,6.5,0,0,0-13,0v57.16h-39l-3.36,13h42.37v57.16a6.5,6.5,0,0,0,13,0V364.47H425.5a6.5,6.5,0,0,0,0-13Z"/><path class="cls-2" d="M298.18,351.47a6.5,6.5,0,0,0,0,13H313l3.36-13Z"/></svg>